<?xml version="1.0" encoding="UTF-8"?>
<svg width="260px" height="260px" viewBox="0 0 260 260" version="1.1" xmlns="http://www.w3.org/2000/svg" xmlns:xlink="http://www.w3.org/1999/xlink">
    <title>favicon-3</title>
    <g id="favicon-3" stroke="none" stroke-width="1" fill="none" fill-rule="evenodd">
        <rect id="Rectangle" fill="#BB86FC" x="0" y="0" width="260" height="260"></rect>
        <path d="M66.8,199.2 C75.6,199.2 83.5333333,197.333333 90.6,193.6 C97.6666667,189.866667 103.266667,184.366667 107.4,177.1 C111.533333,169.833333 113.6,161 113.6,150.6 L113.6,150.6 L113.6,52.8 L86.6,52.8 L86.6,150.8 C86.6,158 84.8333333,163.6 81.3,167.6 C77.7666667,171.6 72.9333333,173.6 66.8,173.6 C61.2,173.6 56.4666667,171.966667 52.6,168.7 C48.7333333,165.433333 45.9333333,160.666667 44.2,154.4 L44.2,154.4 L19.4,164.6 C22.7333333,175.266667 28.6333333,183.7 37.1,189.9 C45.5666667,196.1 55.4666667,199.2 66.8,199.2 Z M179.971429,199.2 C188.771429,199.2 196.704762,197.333333 203.771429,193.6 C210.838095,189.866667 216.438095,184.366667 220.571429,177.1 C224.704762,169.833333 226.771429,161 226.771429,150.6 L226.771429,150.6 L226.771429,52.8 L199.771429,52.8 L199.771429,150.8 C199.771429,158 198.004762,163.6 194.471429,167.6 C190.938095,171.6 186.104762,173.6 179.971429,173.6 C174.371429,173.6 169.638095,171.966667 165.771429,168.7 C161.904762,165.433333 159.104762,160.666667 157.371429,154.4 L157.371429,154.4 L132.571429,164.6 C135.904762,175.266667 141.804762,183.7 150.271429,189.9 C158.738095,196.1 168.638095,199.2 179.971429,199.2 Z" id="JJ" fill="#FFFFFF" fill-rule="nonzero"></path>
    </g>
</svg>